<svg xmlns="http://www.w3.org/2000/svg" width="1200" height="476" viewBox="0 0 1200 476"><rect width="1200" height="476" fill="#0b1220"/><rect x="0" y="0" width="1200" height="6" fill="#4ade80"/><text x="48" y="58" font-family="&#39;DejaVu Sans Mono&#39;,&#39;Courier New&#39;, monospace" font-size="14" fill="#4ade80" font-weight="700" text-anchor="start" letter-spacing="3">THE ORDER MACHINE</text><text x="48" y="96" font-family="Helvetica, Arial, sans-serif" font-size="30" fill="#e6edf6" font-weight="700" text-anchor="start">The order lifecycle, and what it must never do</text><text x="48" y="446" font-family="&#39;DejaVu Sans Mono&#39;,&#39;Courier New&#39;, monospace" font-size="13" fill="#93a1b5" font-weight="700" text-anchor="start" letter-spacing="3">COGNITIVE FAB · POLYGRAPH</text><text x="1152" y="446" font-family="Helvetica, Arial, sans-serif" font-size="15" fill="#93a1b5" font-style="italic" text-anchor="end">verify, don&#39;t review</text><g transform="translate(48 150) scale(1)"><path d="M152 31 L396 31" fill="none" stroke="#93a1b5" stroke-width="2" stroke-linecap="round" stroke-linejoin="round"/><polygon points="396,31 387,36.4 387,25.6" fill="#93a1b5"></polygon><path d="M152 51 L172 51 L172 81 L204 81" fill="none" stroke="#93a1b5" stroke-width="2" stroke-linecap="round" stroke-linejoin="round"/><polygon points="204,81 195,86.4 195,75.6" fill="#93a1b5"></polygon><path d="M344 71 L364 71 L364 51 L396 51" fill="none" stroke="#93a1b5" stroke-width="2" stroke-linecap="round" stroke-linejoin="round"/><polygon points="396,51 387,56.4 387,45.6" fill="#93a1b5"></polygon><path d="M344 91 L364 91 L364 133 L396 133" fill="none" stroke="#93a1b5" stroke-width="2" stroke-linecap="round" stroke-linejoin="round"/><polygon points="396,133 387,138.4 387,127.6" fill="#93a1b5"></polygon><path d="M536 123 L588 123" fill="none" stroke="#93a1b5" stroke-width="2" stroke-linecap="round" stroke-linejoin="round"/><polygon points="588,123 579,128.4 579,117.6" fill="#93a1b5"></polygon><path d="M536 143 L556 143 L556 215 L588 215" fill="none" stroke="#93a1b5" stroke-width="2" stroke-linecap="round" stroke-linejoin="round"/><polygon points="588,215 579,220.4 579,209.6" fill="#93a1b5"></polygon><path d="M728 215 L780 215" fill="none" stroke="#93a1b5" stroke-width="2" stroke-linecap="round" stroke-linejoin="round"/><polygon points="780,215 771,220.4 771,209.6" fill="#93a1b5"></polygon><rect x="12" y="12" width="140" height="58" rx="10" fill="#131c30" stroke="#26344a" stroke-width="2"/><text x="82" y="46.58" font-family="&#39;DejaVu Sans Mono&#39;,&#39;Courier New&#39;, monospace" font-size="15.5" fill="#e6edf6" font-weight="700" text-anchor="middle">NEW</text><rect x="204" y="52" width="140" height="58" rx="10" fill="#131c30" stroke="#26344a" stroke-width="2"/><text x="274" y="86.58" font-family="&#39;DejaVu Sans Mono&#39;,&#39;Courier New&#39;, monospace" font-size="15.5" fill="#e6edf6" font-weight="700" text-anchor="middle">PENDING</text><rect x="396" y="104" width="140" height="58" rx="10" fill="#131c30" stroke="#26344a" stroke-width="2"/><text x="466" y="138.58" font-family="&#39;DejaVu Sans Mono&#39;,&#39;Courier New&#39;, monospace" font-size="15.5" fill="#e6edf6" font-weight="700" text-anchor="middle">CHARGED</text><rect x="588" y="186" width="140" height="58" rx="10" fill="#131c30" stroke="#26344a" stroke-width="2"/><text x="658" y="220.58" font-family="&#39;DejaVu Sans Mono&#39;,&#39;Courier New&#39;, monospace" font-size="15.5" fill="#e6edf6" font-weight="700" text-anchor="middle">SHIPPED</text><rect x="780" y="186" width="140" height="58" rx="10" fill="#131c30" stroke="#26344a" stroke-width="2" stroke-dasharray="5 4"/><text x="850" y="220.58" font-family="&#39;DejaVu Sans Mono&#39;,&#39;Courier New&#39;, monospace" font-size="15.5" fill="#93a1b5" font-weight="700" text-anchor="middle">DELIVERED</text><rect x="396" y="12" width="140" height="58" rx="10" fill="#131c30" stroke="#26344a" stroke-width="2" stroke-dasharray="5 4"/><text x="466" y="46.58" font-family="&#39;DejaVu Sans Mono&#39;,&#39;Courier New&#39;, monospace" font-size="15.5" fill="#93a1b5" font-weight="700" text-anchor="middle">CANCELLED</text><rect x="588" y="94" width="140" height="58" rx="10" fill="#131c30" stroke="#26344a" stroke-width="2" stroke-dasharray="5 4"/><text x="658" y="128.58" font-family="&#39;DejaVu Sans Mono&#39;,&#39;Courier New&#39;, monospace" font-size="15.5" fill="#93a1b5" font-weight="700" text-anchor="middle">REFUNDED</text><line x1="370" y1="75" x2="370" y2="83" stroke="#38bdf8" stroke-width="1.4" stroke-linecap="round"/><text x="370" y="69" font-family="&#39;DejaVu Sans Mono&#39;,&#39;Courier New&#39;, monospace" font-size="13" fill="#38bdf8" font-weight="700" text-anchor="middle">charged</text><line x1="562" y1="142" x2="562" y2="150" stroke="#38bdf8" stroke-width="1.4" stroke-linecap="round"/><text x="562" y="136" font-family="&#39;DejaVu Sans Mono&#39;,&#39;Courier New&#39;, monospace" font-size="13" fill="#38bdf8" font-weight="700" text-anchor="middle">shipped</text></g></svg>